<svg width="110" height="31" viewBox="0 0 110 31" fill="none" xmlns="http://www.w3.org/2000/svg">
<path d="M100.647 3.75V8.86719H108.694V11.6602H100.647V23.1445C100.647 23.9648 100.751 24.6419 100.959 25.1758C101.168 25.7096 101.454 26.1328 101.819 26.4453C102.183 26.7708 102.6 26.9987 103.069 27.1289C103.551 27.2591 104.058 27.3242 104.592 27.3242C104.983 27.3242 105.386 27.3047 105.803 27.2656C106.22 27.2135 106.63 27.1549 107.034 27.0898C107.424 27.0247 107.789 26.9596 108.127 26.8945C108.479 26.8164 108.765 26.7513 108.987 26.6992L109.495 29.2578C109.195 29.4401 108.83 29.6029 108.401 29.7461C107.971 29.8763 107.502 29.987 106.995 30.0781C106.487 30.1823 105.946 30.2604 105.373 30.3125C104.814 30.3646 104.254 30.3906 103.694 30.3906C102.756 30.3906 101.877 30.2604 101.057 30C100.25 29.7266 99.5466 29.2969 98.9477 28.7109C98.3487 28.138 97.8734 27.3958 97.5219 26.4844C97.1833 25.5599 97.0141 24.4466 97.0141 23.1445V11.6602H91.4672V8.86719H97.0141V3.75H100.647Z" fill="white"/>
<path d="M70.9578 15.7422L72.3836 1.5625H86.9734V5.07812H75.4305L74.6297 12.6562C75.1896 12.3307 75.8602 12.0443 76.6414 11.7969C77.4227 11.5495 78.3276 11.4258 79.3563 11.4258C80.6714 11.4258 81.8498 11.6536 82.8914 12.1094C83.9331 12.5651 84.8185 13.2031 85.5477 14.0234C86.2768 14.8568 86.8367 15.8594 87.2274 17.0312C87.618 18.2031 87.8133 19.5052 87.8133 20.9375C87.8133 22.2917 87.631 23.5482 87.2664 24.707C86.9018 25.8659 86.355 26.862 85.6258 27.6953C84.8836 28.5417 83.9526 29.2057 82.8328 29.6875C81.713 30.1562 80.3979 30.3906 78.8875 30.3906C77.7287 30.3906 76.6349 30.2279 75.6063 29.9023C74.5776 29.5768 73.6662 29.0885 72.8719 28.4375C72.0646 27.7865 71.4005 26.9661 70.8797 25.9766C70.3719 24.987 70.0529 23.8346 69.9227 22.5195H73.3602C73.5815 24.1341 74.174 25.3581 75.1375 26.1914C76.1141 27.0247 77.3641 27.4414 78.8875 27.4414C79.7469 27.4414 80.5086 27.2917 81.1727 26.9922C81.8367 26.6797 82.3966 26.237 82.8524 25.6641C83.2951 25.1042 83.6271 24.4271 83.8484 23.6328C84.0828 22.8385 84.2 21.9531 84.2 20.9766C84.2 20.0911 84.0698 19.2643 83.8094 18.4961C83.562 17.7279 83.1974 17.0573 82.7156 16.4844C82.2339 15.9245 81.6414 15.4818 80.9383 15.1562C80.2352 14.8307 79.4279 14.668 78.5164 14.668C77.9175 14.668 77.3966 14.7135 76.9539 14.8047C76.5242 14.8828 76.1336 15 75.782 15.1562C75.4305 15.3125 75.0984 15.5013 74.7859 15.7227C74.4865 15.944 74.174 16.1979 73.8484 16.4844L70.9578 15.7422Z" fill="white"/>
<path d="M55.9758 16.6992L61.6203 8.86719H65.8586L57.9875 19.3164L66.0734 30H61.8937L56.0539 21.9531L50.2141 30H45.9953L54.0812 19.3164L46.2101 8.86719H50.3898L55.9758 16.6992Z" fill="white"/>
<path d="M28.4352 12.0117C28.7216 11.582 29.0406 11.1914 29.3922 10.8398C29.7437 10.4753 30.1148 10.1562 30.5055 9.88281C31.1305 9.42708 31.8141 9.08203 32.5562 8.84766C33.3115 8.61328 34.1122 8.48958 34.9586 8.47656C36.0654 8.47656 37.068 8.63932 37.9664 8.96484C38.8779 9.27734 39.6526 9.77214 40.2906 10.4492C40.9286 11.1263 41.4169 11.9857 41.7555 13.0273C42.107 14.056 42.2828 15.2799 42.2828 16.6992V30H38.6695V16.6602C38.6695 15.8268 38.5719 15.0977 38.3766 14.4727C38.1812 13.8346 37.8948 13.3073 37.5172 12.8906C37.1135 12.4349 36.6057 12.0964 35.9937 11.875C35.3818 11.6406 34.6786 11.5299 33.8844 11.543C33.2333 11.543 32.6148 11.6341 32.0289 11.8164C31.443 11.9987 30.9026 12.2591 30.4078 12.5977C30.0172 12.8581 29.6526 13.1641 29.3141 13.5156C28.9885 13.8542 28.6956 14.2318 28.4352 14.6484V30H24.8219V0H28.4352V12.0117Z" fill="white"/>
<path d="M20.7969 26.2695C20.3542 26.7904 19.8854 27.2656 19.3906 27.6953C18.8958 28.112 18.3815 28.4766 17.8477 28.7891C16.9362 29.3359 15.9531 29.7396 14.8984 30C13.8438 30.2734 12.737 30.4036 11.5781 30.3906C10.4062 30.3776 9.32552 30.2018 8.33594 29.8633C7.35938 29.5117 6.48047 29.0299 5.69922 28.418C4.91797 27.819 4.23438 27.1094 3.64844 26.2891C3.0625 25.4688 2.57422 24.5768 2.18359 23.6133C1.77995 22.6628 1.47396 21.6667 1.26562 20.625C1.07031 19.5703 0.966146 18.5091 0.953125 17.4414V14.1406C0.966146 13.0859 1.05729 12.0378 1.22656 10.9961C1.40885 9.94141 1.68229 8.93229 2.04688 7.96875C2.41146 7.00521 2.86719 6.11328 3.41406 5.29297C3.96094 4.45964 4.61849 3.73698 5.38672 3.125C6.14193 2.52604 7.0013 2.05078 7.96484 1.69922C8.92839 1.34766 10.0091 1.17188 11.207 1.17188C12.5352 1.17188 13.7591 1.38021 14.8789 1.79688C15.9987 2.20052 16.9753 2.77995 17.8086 3.53516C18.6419 4.30339 19.3125 5.22786 19.8203 6.30859C20.3281 7.3763 20.6406 8.57422 20.7578 9.90234H17.1836C17.0404 9.08203 16.819 8.32682 16.5195 7.63672C16.2201 6.93359 15.8294 6.33464 15.3477 5.83984C14.8529 5.34505 14.2669 4.96094 13.5898 4.6875C12.9128 4.40104 12.125 4.25781 11.2266 4.25781C10.3672 4.25781 9.60547 4.40755 8.94141 4.70703C8.27734 4.99349 7.69792 5.38411 7.20312 5.87891C6.70833 6.3737 6.29818 6.95312 5.97266 7.61719C5.64714 8.26823 5.38021 8.95833 5.17188 9.6875C4.96354 10.4167 4.8138 11.1589 4.72266 11.9141C4.63151 12.6693 4.58594 13.3984 4.58594 14.1016V17.4414C4.59896 18.1576 4.65755 18.8997 4.76172 19.668C4.87891 20.4232 5.05469 21.1654 5.28906 21.8945C5.52344 22.6237 5.82292 23.3138 6.1875 23.9648C6.55208 24.6159 6.99479 25.1888 7.51562 25.6836C8.02344 26.1784 8.61589 26.5755 9.29297 26.875C9.97005 27.1615 10.7383 27.3112 11.5977 27.3242C12.0924 27.3372 12.6068 27.3177 13.1406 27.2656C13.6875 27.2135 14.2148 27.1094 14.7227 26.9531C15.2305 26.7969 15.7057 26.5885 16.1484 26.3281C16.5911 26.0547 16.9622 25.7031 17.2617 25.2734L17.3008 18.8867H11.5195V15.8398H20.7383L20.7969 26.2695Z" fill="white"/>
</svg>
